<svg height="415pt" viewBox="0 -24 415.32475 415" width="415pt" xmlns="http://www.w3.org/2000/svg" xmlns:xlink="http://www.w3.org/1999/xlink"><linearGradient id="a" gradientUnits="userSpaceOnUse" x1="207.668" x2="207.668" y1="433.554375" y2="-63.735625"><stop offset=".322" stop-color="#a163f5"/><stop offset=".466" stop-color="#b074ee"/><stop offset=".752" stop-color="#d8a1dd"/><stop offset=".898" stop-color="#efbad3"/></linearGradient><path d="m368.324219 130.164062h-26.390625v-41.644531c-.03125-27.300781-22.15625-49.425781-49.457032-49.457031h-69.390624c-7.960938 0-15.65625-2.878906-21.664063-8.109375l-22.109375-19.242187c-8.554688-7.449219-19.515625-11.550782-30.859375-11.546876h-99c-27.300781.03125-49.421875 22.15625-49.453125 49.457032v260.753906c.0351562 30.257812 23.714844 55.210938 53.929688 56.839844v.078125h280.199218c22.375-.039063 41.636719-15.820313 46.078125-37.753907l34.167969-143 .058594-.269531c2.726562-13.792969-.871094-28.085937-9.796875-38.949219-8.929688-10.863281-22.25-17.15625-36.3125-17.15625zm-354.324219 180.210938v-260.753906c.023438-19.574219 15.882812-35.4375 35.457031-35.457032h99c7.964844 0 15.660157 2.878907 21.667969 8.105469l22.109375 19.246094c8.554687 7.445313 19.515625 11.546875 30.855469 11.546875h69.386718c19.574219.023438 35.4375 15.882812 35.460938 35.457031v41.644531h-6.652344c-3.394531-18.144531-19.21875-31.304687-37.675781-31.328124h-2.3125c-3.402344-18.519532-19.53125-31.972657-38.359375-32h-161c-25.945312.027343-46.972656 21.054687-47 47v233.378906c-12.976562-7.742188-20.929688-21.730469-20.9375-36.839844zm269.605469-197.539062c10.734375.011718 20.199219 7.046874 23.300781 17.328124h-118.894531c-21.746094-.066406-40.671875 14.847657-45.699219 36.003907l-43.5625 153.8125-.074219.292969c-1.640625 6.957031-4.988281 13.394531-9.746093 18.726562v-193.164062c.023437-18.21875 14.785156-32.980469 33-33zm-234.671875 239.699218v-238.699218c.023437-18.21875 14.785156-32.980469 33-33h161c11.109375.011718 20.878906 7.339843 24 18h-145c-25.945313.027343-46.96875 21.054687-47 47v203.519531c-8.125 3.738281-17.210938 4.847656-26 3.179687zm351.792968-169.109375-34.164062 142.988281-.058594.269532c-3.082031 15.445312-16.625 26.578125-32.375 26.609375h-239.742187c8.894531-7.78125 15.144531-18.140625 17.878906-29.640625l43.558594-153.808594.078125-.292969c3.488281-14.90625 16.800781-25.433593 32.109375-25.386719h180.3125c9.851562 0 19.1875 4.398438 25.457031 11.996094 6.265625 7.597656 8.816406 17.597656 6.945312 27.265625zm0 0" fill="url(#a)"/></svg>