<?xml version="1.0" encoding="iso-8859-1"?>
<!-- Generator: Adobe Illustrator 19.0.0, SVG Export Plug-In . SVG Version: 6.00 Build 0)  -->
<svg version="1.1" id="Capa_1" xmlns="http://www.w3.org/2000/svg" xmlns:xlink="http://www.w3.org/1999/xlink" x="0px" y="0px"
	 viewBox="0 0 512 512" style="enable-background:new 0 0 512 512;" xml:space="preserve">
<g>
	<g>
		<path d="M485.042,418.264c-6.059-5.95-12.808-10.938-20.043-14.936C475.967,392.076,482,377.475,482,362
			c0-16.053-6.476-31.177-18.235-42.585C452.19,308.185,437.003,302,421,302c-33.084,0-60,26.916-60,60
			c0,15.905,6.233,30.374,16.369,41.122c-7.375,4.03-14.249,9.091-20.411,15.142c-8.331,8.181-14.847,17.649-19.396,27.928
			c-7.942-18.242-21.757-33.358-39.046-42.949C308.72,392.482,315,377.965,315,362c0-30.546-22.95-55.815-52.509-59.516
			c-12.93-37.162-41.207-66.145-76.528-80.526C200.733,208.252,210,188.692,210,167c0-41.355-33.645-75-75-75s-75,33.645-75,75
			c0,21.706,9.278,41.278,24.066,54.986C34.803,242.13,0,290.573,0,347c0,8.284,6.716,15,15,15h15
			c0,15.965,6.28,30.482,16.484,41.243C18.79,418.606,0,448.148,0,482v15c0,8.284,6.716,15,15,15h482c8.284,0,15-6.716,15-15v-15
			C512,457.969,502.426,435.333,485.042,418.264z M255,332c16.542,0,30,13.458,30,30s-13.458,30-30,30s-30-13.458-30-30
			S238.458,332,255,332z M135,122c24.813,0,45,20.187,45,45s-20.187,45-45,45s-45-20.187-45-45S110.187,122,135,122z M38.073,332
			h-7.005c7.3-50.817,51.126-90,103.932-90c42.92,0,80.884,25.934,96.948,64.612c-12.172,5.085-22.313,14.073-28.875,25.388h-61.144
			c-10.391-17.916-29.769-30-51.928-30C67.842,302,48.464,314.084,38.073,332z M120,362c0,16.542-13.458,30-30,30s-30-13.458-30-30
			s13.458-30,30-30S120,345.458,120,362z M30,482c0-33.084,26.916-60,60-60s60,26.916,60,60H30z M172.5,446.052
			c-7.952-18.179-21.74-33.242-38.984-42.809C143.72,392.482,150,377.965,150,362h45c0,15.965,6.28,30.482,16.484,41.243
			C194.24,412.809,180.452,427.873,172.5,446.052z M195,482c0-33.084,26.916-60,60-60s60,26.916,60,60H195z M421,332
			c16.804,0,31,13.738,31,30c0,16.262-14.196,30-31,30c-16.542,0-30-13.458-30-30S404.458,332,421,332z M360,482
			c0-33.084,27.364-60,61-60s61,26.916,61,60H360z"/>
	</g>
</g>
<g>
	<g>
		<path d="M499.056,13.921C490.474,4.944,479.089,0,467,0H285c-12.089,0-23.474,4.944-32.056,13.921
			C244.597,22.653,240,34.045,240,46v151c0,24.813,20.187,45,45,45h182c24.813,0,45-20.187,45-45V46
			C512,34.045,507.403,22.653,499.056,13.921z M482,197c0,8.271-6.729,15-15,15H285c-8.271,0-15-6.729-15-15V46
			c0-8.523,7.009-16,15-16h182c7.991,0,15,7.477,15,16V197z"/>
	</g>
</g>
<g>
	<g>
		<path d="M315,122c-8.284,0-15,6.716-15,15v30c0,8.284,6.716,15,15,15s15-6.716,15-15v-30C330,128.716,323.284,122,315,122z"/>
	</g>
</g>
<g>
	<g>
		<path d="M376,92c-8.284,0-15,6.716-15,15v60c0,8.284,6.716,15,15,15s15-6.716,15-15v-60C391,98.716,384.284,92,376,92z"/>
	</g>
</g>
<g>
	<g>
		<path d="M436,62c-8.284,0-15,6.716-15,15v90c0,8.284,6.716,15,15,15s15-6.716,15-15V77C451,68.716,444.284,62,436,62z"/>
	</g>
</g>
<g>
</g>
<g>
</g>
<g>
</g>
<g>
</g>
<g>
</g>
<g>
</g>
<g>
</g>
<g>
</g>
<g>
</g>
<g>
</g>
<g>
</g>
<g>
</g>
<g>
</g>
<g>
</g>
<g>
</g>
</svg>
