<?xml version="1.0" standalone="no"?>
<!DOCTYPE svg PUBLIC "-//W3C//DTD SVG 20010904//EN"
 "http://www.w3.org/TR/2001/REC-SVG-20010904/DTD/svg10.dtd">
<svg version="1.0" xmlns="http://www.w3.org/2000/svg"
 width="980.000000pt" height="868.000000pt" viewBox="0 0 980.000000 868.000000"
 preserveAspectRatio="xMidYMid meet">
<metadata>
Created by potrace 1.16, written by Peter Selinger 2001-2019
</metadata>
<g transform="translate(0.000000,868.000000) scale(0.100000,-0.100000)"
fill="#000000" stroke="none">
<path d="M2602 8657 c-18 -5 -52 -27 -77 -49 -82 -72 -76 72 -73 -1700 l3
-1576 30 -43 c17 -24 53 -57 80 -74 l48 -30 2286 0 2286 0 41 22 c47 25 89 71
113 123 14 32 16 186 16 1590 0 1474 -1 1557 -18 1602 -22 57 -91 123 -143
137 -54 15 -4545 13 -4592 -2z m4276 -1729 l-3 -1283 -1975 0 -1975 0 -3 1270
c-1 699 0 1276 3 1283 3 9 409 12 1980 12 l1975 0 -2 -1282z"/>
<path d="M3790 7844 c-59 -26 -101 -65 -126 -118 -55 -118 -8 -247 110 -302
l51 -24 1040 0 c1169 0 1080 -5 1159 76 83 86 83 210 0 303 -78 87 2 81 -1168
81 -894 -1 -1036 -3 -1066 -16z"/>
<path d="M3811 7148 c-134 -38 -208 -191 -152 -313 22 -50 86 -108 137 -126
59 -21 2083 -21 2134 0 97 39 153 118 154 215 0 93 -45 165 -134 212 -33 18
-81 19 -1070 21 -661 1 -1047 -2 -1069 -9z"/>
<path d="M3811 6408 c-134 -38 -208 -191 -152 -313 22 -50 86 -108 137 -126
59 -21 2083 -21 2134 0 97 39 153 118 154 215 0 93 -45 165 -134 212 -33 18
-81 19 -1070 21 -661 1 -1047 -2 -1069 -9z"/>
<path d="M4735 4711 c-50 -22 -96 -67 -121 -118 -17 -35 -19 -69 -22 -400 l-4
-363 -1952 0 c-2188 0 -2018 6 -2100 -73 -72 -69 -76 -93 -76 -497 0 -377 5
-418 54 -483 62 -81 199 -112 293 -66 53 25 106 86 121 138 8 24 12 124 12
273 l0 235 557 6 c306 4 1127 7 1825 7 l1268 0 0 -248 c0 -272 7 -323 54 -385
58 -76 192 -110 284 -71 49 20 100 70 123 119 17 36 19 68 19 313 l0 272 1268
0 c698 0 1519 -3 1824 -7 l556 -6 4 -246 c3 -234 5 -248 27 -290 45 -86 118
-130 214 -131 98 0 178 50 218 135 17 37 19 71 19 431 l0 390 -25 51 c-31 62
-81 102 -149 120 -41 10 -430 13 -2003 13 l-1953 0 0 363 c0 331 -2 365 -19
402 -23 49 -74 99 -123 119 -51 22 -143 20 -193 -3z"/>
<path d="M180 2131 c-78 -24 -152 -93 -170 -160 -7 -27 -9 -317 -8 -918 l3
-880 30 -49 c19 -30 49 -60 79 -79 l49 -30 1220 -3 1220 -2 52 24 c29 13 64
39 78 58 60 78 57 29 57 980 -1 693 -4 881 -14 910 -19 53 -54 93 -111 125
l-50 28 -1205 2 c-663 1 -1216 -2 -1230 -6z m2130 -1061 l0 -600 -915 0 -915
0 0 600 0 600 915 0 915 0 0 -600z"/>
<path d="M3667 2124 c-59 -18 -128 -84 -148 -140 -12 -32 -14 -197 -14 -919
l0 -880 22 -41 c28 -52 95 -111 142 -124 51 -14 2413 -13 2464 1 47 13 111 69
140 123 l22 41 0 880 c0 995 4 940 -78 1010 -79 68 -14 65 -1321 64 -1014 0
-1188 -2 -1229 -15z m2153 -1054 l0 -600 -920 0 -920 0 0 600 0 600 920 0 920
0 0 -600z"/>
<path d="M7190 2131 c-78 -24 -152 -93 -170 -160 -7 -27 -9 -317 -8 -918 l3
-880 30 -49 c19 -30 49 -60 79 -79 l49 -30 1220 -3 1220 -2 52 24 c29 13 64
39 78 58 60 78 57 29 57 980 -1 693 -4 881 -14 910 -19 53 -54 93 -111 125
l-50 28 -1205 2 c-663 1 -1216 -2 -1230 -6z m2130 -1061 l0 -600 -915 0 -915
0 0 600 0 600 915 0 915 0 0 -600z"/>
</g>
</svg>
