<?xml version="1.0" standalone="no"?>
<!DOCTYPE svg PUBLIC "-//W3C//DTD SVG 20010904//EN"
 "http://www.w3.org/TR/2001/REC-SVG-20010904/DTD/svg10.dtd">
<svg version="1.0" xmlns="http://www.w3.org/2000/svg"
 width="225.000000pt" height="225.000000pt" viewBox="0 0 225.000000 225.000000"
 preserveAspectRatio="xMidYMid meet">
<metadata>
Created by potrace 1.16, written by Peter Selinger 2001-2019
</metadata>
<g transform="translate(0.000000,225.000000) scale(0.100000,-0.100000)"
fill="#000000" stroke="none">
<path d="M693 1617 c-457 -456 -453 -452 -397 -496 15 -12 35 -21 45 -21 10 0
48 28 84 61 l65 61 0 -455 c0 -493 -2 -479 53 -492 12 -3 293 -4 625 -3 584 3
604 4 618 22 12 16 14 97 14 473 0 249 2 453 5 453 3 0 33 -27 66 -60 65 -65
95 -74 129 -40 48 48 49 46 -403 497 -367 368 -426 423 -452 423 -26 0 -85
-55 -452 -423z m717 4 l260 -260 0 -480 0 -481 -135 0 -135 0 0 267 c0 234 -2
269 -17 285 -15 16 -36 18 -239 18 -219 0 -223 0 -238 -22 -14 -19 -16 -64
-16 -285 l0 -263 -135 0 -135 0 0 477 0 478 262 262 c145 145 264 263 266 263
1 0 120 -117 262 -259z m-140 -1001 l0 -220 -125 0 -125 0 0 220 0 220 125 0
125 0 0 -220z"/>
</g>
</svg>
