<?xml version="1.0" standalone="no"?>
<!DOCTYPE svg PUBLIC "-//W3C//DTD SVG 20010904//EN"
 "http://www.w3.org/TR/2001/REC-SVG-20010904/DTD/svg10.dtd">
<svg version="1.0" xmlns="http://www.w3.org/2000/svg"
 width="864.000000pt" height="701.000000pt" viewBox="0 0 864.000000 701.000000"
 preserveAspectRatio="xMidYMid meet">
<metadata>
Created by potrace 1.16, written by Peter Selinger 2001-2019
</metadata>
<g transform="translate(0.000000,701.000000) scale(0.100000,-0.100000)"
fill="#000000" stroke="none">
<path d="M4570 6600 c-270 -33 -530 -238 -633 -500 -57 -144 -57 -152 -57
-980 0 -482 4 -760 10 -758 5 2 117 138 248 303 146 183 252 307 273 320 33
19 56 20 619 25 654 7 627 4 797 85 236 111 405 359 431 629 39 406 -197 748
-593 858 -77 21 -98 22 -555 24 -261 1 -504 -2 -540 -6z m1031 -180 c70 -14
201 -78 267 -131 197 -161 273 -442 185 -691 -35 -101 -100 -197 -175 -260
-50 -42 -102 -78 -112 -78 -2 0 -25 39 -50 86 -57 107 -109 169 -194 234 -93
70 -103 71 -155 21 -23 -23 -67 -54 -97 -69 -50 -24 -65 -27 -165 -27 -98 0
-116 3 -166 26 -30 14 -75 45 -99 68 -24 22 -49 41 -55 41 -16 0 -75 -40 -137
-93 -93 -79 -177 -211 -208 -328 -6 -22 -19 -43 -28 -46 -106 -36 -150 -72
-268 -223 -38 -49 -75 -89 -82 -89 -11 -1 -13 94 -10 527 l3 527 29 84 c72
206 243 367 443 415 71 18 986 22 1074 6z"/>
<path d="M5029 6137 c-76 -22 -143 -81 -176 -156 -24 -56 -21 -166 7 -223 71
-151 276 -199 412 -95 129 99 133 313 8 420 -66 56 -166 78 -251 54z"/>
<path d="M4501 4434 c-143 -178 -257 -312 -275 -322 -28 -15 -92 -18 -616 -23
-655 -6 -630 -4 -789 -82 -206 -100 -360 -284 -423 -502 -30 -105 -32 -314 -4
-415 24 -88 84 -213 134 -280 95 -127 260 -240 425 -292 71 -23 79 -23 602
-23 523 0 531 0 609 23 233 67 421 228 520 444 67 146 67 134 66 995 0 427 -1
778 -3 779 -1 2 -112 -134 -246 -302z m79 -706 c0 -571 -1 -583 -67 -716 -45
-92 -148 -204 -234 -254 -75 -45 -86 -46 -99 -13 -57 150 -186 303 -307 362
l-32 16 -53 -50 c-73 -69 -146 -96 -258 -96 -112 0 -185 27 -258 97 l-53 50
-45 -25 c-106 -57 -257 -232 -280 -324 -3 -14 -10 -27 -14 -30 -14 -9 -125 71
-176 127 -59 65 -117 171 -139 254 -18 66 -21 212 -6 289 43 229 214 412 447
481 52 15 129 18 644 23 566 6 586 7 630 27 65 30 99 62 196 185 48 60 91 109
96 109 4 0 8 -231 8 -512z"/>
<path d="M3436 3608 c-24 -7 -59 -30 -92 -62 -42 -41 -56 -63 -69 -110 -73
-251 193 -448 410 -304 166 110 147 378 -34 464 -43 21 -161 27 -215 12z"/>
<path d="M4008 2403 c-31 -2 -61 -10 -67 -17 -6 -7 -38 -91 -71 -187 -58 -170
-60 -177 -60 -280 0 -59 3 -121 6 -138 l7 -32 96 3 96 3 5 35 5 35 104 3 c111
3 121 -1 121 -45 0 -22 3 -23 105 -23 l105 0 0 119 c0 93 -5 134 -21 187 -35
115 -119 318 -137 332 -15 12 -147 14 -294 5z m144 -205 c18 -15 70 -166 62
-179 -3 -5 -43 -9 -90 -9 -67 0 -84 3 -84 14 0 30 51 175 63 179 21 9 33 7 49
-5z"/>
<path d="M4963 2328 c-16 -20 -199 -595 -192 -602 13 -13 184 -65 190 -59 4 4
26 60 49 123 24 63 48 121 55 129 15 15 17 11 35 -80 12 -64 32 -87 82 -95 31
-5 41 -1 94 46 45 39 60 48 62 35 2 -9 -12 -69 -32 -134 -20 -64 -36 -122 -36
-128 0 -6 37 -24 83 -39 45 -15 88 -29 95 -32 17 -6 43 57 146 347 65 183 84
247 75 257 -10 12 -181 74 -206 74 -7 0 -53 -38 -102 -85 -50 -47 -94 -85 -99
-85 -21 0 -32 31 -52 140 -11 63 -26 120 -33 126 -6 6 -50 24 -97 39 -47 15
-90 30 -96 32 -6 2 -15 -2 -21 -9z"/>
<path d="M3190 2271 c-41 -16 -79 -35 -84 -44 -7 -11 2 -48 34 -132 35 -95 40
-119 29 -126 -32 -19 -162 -60 -169 -52 -4 4 -24 58 -45 118 -21 61 -41 114
-46 119 -11 12 -200 -55 -207 -74 -3 -8 7 -50 23 -95 47 -134 185 -489 193
-497 5 -5 49 6 100 23 65 23 92 37 92 48 0 9 -9 44 -19 78 -14 46 -16 65 -7
71 11 8 158 62 170 62 3 0 20 -31 37 -70 18 -38 35 -70 40 -70 13 0 173 61
182 69 6 6 -146 468 -186 564 -20 46 -34 46 -137 8z"/>
<path d="M3925 1255 c-5 -1 -36 -8 -68 -15 -100 -20 -147 -86 -116 -162 17
-41 71 -64 182 -76 48 -5 94 -15 102 -22 23 -19 18 -39 -12 -51 -22 -8 -32 -6
-54 11 -24 17 -43 20 -119 20 -73 0 -92 -3 -97 -16 -9 -24 35 -63 91 -79 66
-20 208 -19 277 1 94 28 144 103 119 179 -16 49 -56 67 -168 76 -52 5 -100 13
-108 20 -20 16 -17 37 7 49 16 9 26 8 46 -5 21 -14 40 -16 110 -10 54 4 83 11
80 18 -7 21 -55 49 -98 58 -42 8 -153 11 -174 4z"/>
<path d="M4419 1246 c-57 -20 -96 -53 -118 -99 -39 -81 -19 -196 43 -245 101
-79 320 -62 376 30 38 62 32 68 -73 68 -90 0 -94 -1 -105 -25 -13 -28 -47 -34
-56 -9 -3 9 -6 31 -6 50 l0 33 133 3 132 3 -3 35 c-6 89 -114 170 -226 170
-33 -1 -77 -7 -97 -14z"/>
<path d="M4820 1218 c0 -13 -7 -97 -15 -188 -7 -91 -11 -168 -7 -171 10 -9
182 -19 182 -11 13 209 30 267 65 231 13 -13 14 -32 7 -125 -5 -60 -7 -111 -6
-113 6 -7 176 -16 180 -10 2 4 8 70 14 148 8 115 7 148 -4 175 -33 79 -126
102 -189 46 -19 -16 -37 -30 -40 -30 -3 0 -10 13 -15 28 -9 26 -16 30 -63 35
-95 12 -109 10 -109 -15z"/>
<path d="M3336 1214 c-83 -18 -141 -46 -157 -76 -17 -32 -14 -91 5 -121 23
-34 68 -48 184 -56 73 -5 97 -10 105 -23 24 -38 -44 -66 -78 -32 -14 14 -30
16 -108 10 -51 -4 -96 -11 -101 -16 -5 -5 3 -21 20 -38 54 -54 210 -66 343
-26 95 28 150 113 121 185 -21 51 -52 63 -167 69 -78 4 -107 9 -119 22 -14 14
-15 20 -4 32 14 18 56 21 65 5 5 -7 33 -8 84 -4 99 9 110 16 80 44 -46 43
-146 52 -273 25z"/>
<path d="M2400 1171 l-115 -28 -3 -136 c-1 -76 -6 -137 -11 -137 -5 0 -33 54
-62 120 -41 92 -57 120 -72 120 -21 0 -220 -39 -225 -45 -6 -5 89 -469 97
-478 4 -4 40 0 79 9 59 13 72 19 67 33 -13 42 -54 265 -50 269 10 10 22 -12
80 -138 32 -69 59 -127 60 -128 2 -2 38 4 79 13 l76 17 0 133 c0 79 4 136 10
140 13 8 14 4 40 -126 12 -58 26 -112 30 -119 7 -12 22 -11 85 4 l77 18 -6 48
c-13 96 -102 441 -114 439 -4 0 -59 -13 -122 -28z"/>
<path d="M5392 1169 c-49 -32 -82 -95 -82 -159 0 -101 67 -164 175 -165 33 0
68 4 78 9 14 7 17 3 17 -22 0 -73 -49 -113 -70 -58 -9 25 -19 27 -157 42 l-63
7 0 -32 c0 -42 56 -102 123 -131 77 -34 197 -33 263 1 73 38 82 61 110 280 13
106 22 194 20 196 -2 3 -37 9 -77 14 -62 8 -74 7 -84 -8 -11 -15 -14 -14 -34
6 -31 31 -63 41 -129 41 -41 0 -66 -6 -90 -21z"/>
<path d="M2773 1131 c-45 -22 -69 -41 -89 -71 -63 -95 -30 -238 65 -287 81
-42 230 -26 306 32 39 29 65 72 65 106 0 20 -3 21 -57 15 -116 -14 -124 -17
-135 -47 -18 -53 -61 -34 -73 32 l-7 36 131 19 c143 20 148 23 117 83 -55 105
-197 141 -323 82z"/>
<path d="M5977 1096 c-101 -28 -156 -113 -145 -226 10 -99 98 -165 237 -177
85 -7 147 13 186 58 40 48 34 55 -66 71 l-91 15 -15 -24 c-18 -26 -48 -30 -57
-7 -9 24 -7 82 4 89 5 3 61 -4 125 -16 63 -12 122 -19 130 -15 32 12 8 102
-43 158 -64 71 -170 101 -265 74z"/>
<path d="M6356 883 c-19 -82 -38 -166 -42 -189 l-6 -40 99 -22 c54 -12 103
-22 110 -22 6 0 16 22 22 48 23 109 49 142 114 142 l42 0 18 78 c9 42 17 80
17 85 0 4 -20 7 -45 7 -37 0 -52 -6 -84 -35 -21 -19 -41 -35 -45 -35 -3 0 -6
22 -6 48 l0 48 -72 17 c-40 10 -76 17 -80 17 -3 0 -22 -66 -42 -147z"/>
</g>
</svg>
