<svg height="512" viewBox="0 0 64 64" width="512" xmlns="http://www.w3.org/2000/svg"><g id="Bookshelves-book-books-education-book_store" data-name="Bookshelves-book-books-education-book store"><path d="m36 50h10v4h-10z"/><path d="m26 18h8v24h-8z"/><path d="m26 44h8v2h-8z"/><path d="m26 10h8v6h-8z"/><path d="m46 10h-10v38h10zm-2 33a1 1 0 0 1 -1 1h-4a1 1 0 0 1 -1-1v-28a1 1 0 0 1 1-1h4a1 1 0 0 1 1 1z"/><path d="m48 13h10v34h-10z"/><path d="m40 16h2v26h-2z"/><path d="m48 49h10v5h-10z"/><path d="m36 4h10v4h-10z"/><path d="m4 56h56v2h-56z"/><path d="m26 48h8v6h-8z"/><path d="m23.68 11.27-7.73-2.07-11.38 42.5 7.72 2.08zm-5.6 1.608 1.932.518-.777 2.9-1.935-.52zm-7.649 36.257-1.931-.517 1.035-3.864 1.932.517zm-.12-7.279 6.211-23.182 1.932.517-6.212 23.183z"/><path d="m48 6h10v5h-10z"/></g></svg>