<?xml version="1.0" standalone="no"?>
<!DOCTYPE svg PUBLIC "-//W3C//DTD SVG 20010904//EN"
 "http://www.w3.org/TR/2001/REC-SVG-20010904/DTD/svg10.dtd">
<svg version="1.0" xmlns="http://www.w3.org/2000/svg"
 width="2041.000000pt" height="2041.000000pt" viewBox="0 0 2041.000000 2041.000000"
 preserveAspectRatio="xMidYMid meet">
<metadata>
Created by potrace 1.16, written by Peter Selinger 2001-2019
</metadata>
<g transform="translate(0.000000,2041.000000) scale(0.100000,-0.100000)"
fill="#000000" stroke="none">
<path d="M5659 18935 c-480 -70 -866 -395 -1012 -850 -60 -187 -62 -217 -62
-975 0 -754 1 -763 64 -957 142 -435 519 -756 980 -834 86 -15 307 -15 396 0
260 43 513 177 696 367 138 144 223 286 283 474 60 183 61 205 61 970 0 754
-1 764 -56 945 -60 194 -159 357 -308 506 -198 198 -433 314 -720 354 -122 17
-203 17 -322 0z"/>
<path d="M14137 18934 c-425 -66 -754 -306 -944 -689 -52 -103 -77 -179 -103
-303 -19 -95 -20 -134 -20 -817 0 -681 1 -722 20 -816 11 -55 28 -121 36 -147
149 -444 524 -766 983 -843 87 -15 308 -15 396 0 386 65 726 310 898 649 62
122 98 220 124 342 16 78 18 147 18 810 0 661 -2 733 -18 815 -94 463 -428
831 -872 960 -180 52 -351 65 -518 39z"/>
<path d="M1700 9450 l0 -7340 4616 0 c3689 0 4614 3 4608 13 -4 6 -42 57 -84
112 -184 240 -356 505 -484 748 l-68 127 -3659 0 -3659 0 0 4775 0 4775 7095
0 7095 0 0 -1127 1 -1128 177 -87 c332 -162 700 -388 964 -594 67 -52 125 -94
129 -94 5 0 8 1553 7 3578 l-3 3577 -1112 3 -1113 2 0 -159 c0 -365 -60 -642
-200 -926 -105 -213 -217 -364 -400 -537 -290 -277 -642 -448 -1036 -504 -143
-20 -398 -20 -539 1 -815 119 -1465 754 -1601 1566 -10 65 -19 189 -23 329
l-6 225 -2337 3 -2338 2 0 -117 c-1 -283 -36 -531 -102 -731 -41 -124 -151
-346 -223 -452 -262 -384 -652 -664 -1085 -779 -380 -100 -814 -80 -1160 53
-620 240 -1065 764 -1196 1408 -23 114 -28 168 -33 373 l-6 240 -1112 3 -1113
2 0 -7340z"/>
<path d="M7720 10560 l0 -870 870 0 870 0 0 870 0 870 -870 0 -870 0 0 -870z"/>
<path d="M10850 10560 l0 -870 440 0 440 0 120 90 c200 149 414 287 664 428
l76 42 0 590 0 590 -870 0 -870 0 0 -870z"/>
<path d="M13980 11086 l0 -343 103 18 c332 61 780 96 1077 85 163 -7 434 -28
522 -42 l38 -7 0 317 0 316 -870 0 -870 0 0 -344z"/>
<path d="M14680 10150 c-550 -50 -988 -159 -1463 -361 -1027 -439 -1873 -1247
-2358 -2254 -255 -529 -401 -1071 -450 -1670 -17 -212 -6 -708 20 -913 113
-871 433 -1638 970 -2322 459 -585 1102 -1083 1781 -1377 654 -284 1319 -408
2055 -382 817 29 1636 291 2325 744 266 175 500 363 719 579 644 634 1080
1411 1280 2281 160 696 159 1393 -3 2090 -130 559 -353 1071 -674 1545 -530
783 -1249 1364 -2132 1723 -362 147 -772 250 -1210 303 -156 19 -709 28 -860
14z m586 -1150 c491 -38 909 -152 1322 -359 877 -440 1524 -1221 1801 -2174
110 -378 157 -889 116 -1277 -49 -480 -156 -846 -366 -1260 -451 -890 -1284
-1561 -2234 -1799 -682 -171 -1380 -140 -2035 91 -779 274 -1466 856 -1874
1586 -473 846 -573 1861 -275 2779 131 402 352 811 607 1121 334 406 697 700
1147 928 425 215 827 323 1370 367 93 8 301 6 421 -3z"/>
<path d="M17332 6970 c-43 -9 -333 -153 -1499 -742 l-632 -319 -73 22 c-137
41 -309 25 -438 -41 -219 -111 -354 -365 -321 -601 15 -104 35 -165 78 -237
114 -188 297 -292 513 -292 160 0 295 52 412 159 68 62 111 127 148 224 l27
72 704 356 c1376 696 1395 706 1441 758 122 137 132 342 23 490 -84 114 -248
179 -383 151z"/>
<path d="M4595 8748 c-3 -7 -4 -400 -3 -873 l3 -860 870 0 870 0 0 870 0 870
-868 3 c-689 2 -869 0 -872 -10z"/>
<path d="M7725 8748 c-3 -7 -4 -400 -3 -873 l3 -860 868 -3 867 -2 0 875 0
875 -865 0 c-683 0 -867 -3 -870 -12z"/>
<path d="M4597 6073 c-4 -3 -7 -395 -7 -870 l0 -863 875 0 875 0 -2 868 -3
867 -866 3 c-476 1 -869 -1 -872 -5z"/>
<path d="M7720 5210 l0 -870 870 0 870 0 0 870 0 870 -870 0 -870 0 0 -870z"/>
</g>
</svg>
